<?xml version="1.0" encoding="UTF-8"?>
<svg version="1.1" viewBox="0 0 106.49 16.338" xmlns="http://www.w3.org/2000/svg">
 <g transform="translate(-31.159 71.475)">
  <g transform="translate(-20.598 -114.54)" stroke-width=".26458">
   <g fill="#4c72b0" aria-label="&lt;">
    <path d="m53.344 51.26 5.1759 2.0919v1.6206l-6.7634-3.1337v-1.2072l6.7634-3.1254v1.6206z"/>
   </g>
   <g aria-label="anim" fill="currentColor">
    <path d="m68.964 53.997h-3.9853l-0.78548 2.0588h-2.0257l3.8943-9.6325h1.8438l3.8778 9.6325h-2.034zm-3.3982-1.5296h2.8112l-1.4056-3.6546z"/>
    <path d="m81.185 56.056h-2.0009l-4.3325-6.5732v6.5732h-2.0092v-9.6325h2.0092l4.3325 6.5815v-6.5815h2.0009z"/>
    <path d="m85.261 56.056h-2.0009v-9.6325h2.0009z"/>
    <path d="m89.949 46.423 2.7864 6.9701 2.7616-6.9701h2.6293v9.6325h-2.0009v-2.6045l0.2067-4.7129-2.9104 7.3174h-1.3891l-2.9021-7.276 0.2067 4.6715v2.6045h-2.0009v-9.6325z"/>
   </g>
   <g transform="translate(13.933 -44.092)" fill="#8c8c8c">
    <g aria-label="[">
     <path d="m89.511 88.006h-1.7363v14.651h1.7363v0.84336h-2.7285v-16.338h2.7285z"/>
    </g>
    <g aria-label="attr">
     <path d="m95.661 97.576h-4.6715l-1.0253 2.5714h-1.0253l3.9191-9.6325h0.95084l3.8861 9.6325h-1.017zm-4.3408-0.84336h4.0018l-1.9926-5.0353z"/>
     <path d="m105.75 91.367h-3.5222v8.7808h-0.98392v-8.7808h-3.514v-0.85163h8.0202z"/>
     <path d="m114.49 91.367h-3.5223v8.7808h-0.98392v-8.7808h-3.514v-0.85163h8.0202z"/>
     <path d="m120.02 96.278h-2.927v3.8695h-0.98391v-9.6325h3.4148q1.6619 0 2.5962 0.77721 0.94257 0.77721 0.94257 2.1332 0 0.95084-0.57877 1.6619-0.57878 0.7028-1.5296 0.96738l2.5466 4.0101v0.0827h-1.0583zm-2.927-0.84336h2.6128q1.0749 0 1.7198-0.55397 0.64492-0.55397 0.64492-1.4304 0-0.96738-0.66973-1.5214-0.66145-0.55397-1.8521-0.56224h-2.4557z"/>
    </g>
    <g aria-label="]">
     <path d="m122.93 87.162h2.7368v16.338h-2.7368v-0.84336h1.7446v-14.651h-1.7446z"/>
    </g>
   </g>
   <g fill="#4c72b0" aria-label="/&gt;">
    <path d="m144.56 57.775h-1.3146l5.0271-13.072h1.3064z" style="font-variant-caps:all-small-caps"/>
    <path d="m156.65 51.367-5.4653-2.1415v-1.571l7.0611 3.1254v1.2072l-7.0611 3.1337v-1.5875z" style="font-variant-caps:all-small-caps"/>
   </g>
  </g>
 </g>
</svg>
