<?xml version="1.0" encoding="UTF-8"?>
<svg version="1.1" viewBox="0 0 148.29 13.072" xmlns="http://www.w3.org/2000/svg">
 <style>
  @keyframes pop0 {
      0% {opacity: 0;}
     20% {opacity: 0;}
     30% {opacity: 1;}
     95% {opacity: 1;}
    100% {opacity: 0;}
  }

  @keyframes pop1 {
      0% {opacity: 0;}
     35% {opacity: 0;}
     45% {opacity: 1;}
     95% {opacity: 1;}
    100% {opacity: 0;}
  }

  @keyframes pop2 {
      0% {opacity: 0;}
     50% {opacity: 0;}
     60% {opacity: 1;}
     95% {opacity: 1;}
    100% {opacity: 0;}
  }
  
  @keyframes pop3 {
      0% {opacity: 0;}
     65% {opacity: 0;}
     75% {opacity: 1;}
     95% {opacity: 1;}
    100% {opacity: 0;}
  }

  #attr0 {animation: pop0 4s linear infinite;}
  #attr1 {animation: pop1 4s linear infinite;}
  #attr2 {animation: pop2 4s linear infinite;}
  #attr3 {animation: pop3 4s linear infinite;}
 </style>
 <g transform="translate(-31.158 7.6971)">
  <g stroke-width=".26458">
   <g fill="#4c72b0" aria-label="&lt;">
    <path d="m32.746-1.1404 5.1759 2.0919v1.6206l-6.7634-3.1337v-1.2072l6.7634-3.1254v1.6206z"/>
   </g>
   <g aria-label="anim" fill="currentColor">
    <path d="m46.711 1.5964h-3.9853l-0.78548 2.0588h-2.0257l3.8943-9.6325h1.8438l3.8778 9.6325h-2.034zm-3.3982-1.5296h2.8112l-1.4056-3.6546z"/>
    <path d="m58.932 3.6551h-2.0009l-4.3325-6.5732v6.5732h-2.0092v-9.6325h2.0092l4.3325 6.5815v-6.5815h2.0009z"/>
    <path d="m63.008 3.6551h-2.0009v-9.6325h2.0009z"/>
    <path d="m67.696-5.9773 2.7864 6.9701 2.7616-6.9701h2.6293v9.6325h-2.0009v-2.6045l0.2067-4.7129-2.9104 7.3174h-1.3891l-2.9021-7.276 0.2067 4.6715v2.6045h-2.0009v-9.6325z"/>
   </g>
   <g transform="translate(-.00098924)" fill="#8c8c8c">
    <g aria-label="attr">
     <path d="m85.648 1.0837h-4.6715l-1.0253 2.5714h-1.0253l3.9191-9.6325h0.95084l3.8861 9.6325h-1.017zm-4.3408-0.84336h4.0018l-1.9926-5.0353z"/>
     <path d="m95.735-5.1257h-3.5223v8.7808h-0.98392v-8.7808h-3.514v-0.85163h8.0202z"/>
     <path d="m104.47-5.1257h-3.5223v8.7808h-0.98392v-8.7808h-3.514v-0.85163h8.0202z"/>
     <path d="m110.01-0.21437h-2.9269v3.8695h-0.98392v-9.6325h3.4148q1.6619 0 2.5962 0.77721 0.94257 0.77721 0.94257 2.1332 0 0.95084-0.57877 1.6619-0.57877 0.7028-1.5296 0.96738l2.5466 4.0101v0.082682h-1.0583zm-2.9269-0.84336h2.6128q1.0749 0 1.7198-0.55397 0.64492-0.55397 0.64492-1.4304 0-0.96738-0.66973-1.5214-0.66145-0.55397-1.8521-0.56224h-2.4556z"/>
    </g>
    <g aria-label="=">
     <path d="m122.46-2.422h-6.8957v-0.87643h6.8957zm0 3.3982h-6.8957v-0.87643h6.8957z" stop-color="#000000"/>
    </g>
    <g aria-label="0 1 2 3">
     <path id="attr0" d="m127.24 3.7957q-1.1493-0.033073-1.8438-0.74414-0.69453-0.71933-0.81855-1.9513-0.0744-0.76068 0.0165-1.4717l0.21498-1.5296q0.29765-2.0671 1.3229-3.1585 1.0253-1.0997 2.5714-1.0583 1.1576 0.033073 1.8438 0.75241 0.69453 0.71107 0.81856 1.9348 0.0744 0.73587-0.0165 1.48l-0.21497 1.5048q-0.29766 2.0753-1.3146 3.1833-1.017 1.0997-2.5797 1.0583zm3.1915-6.9618-0.0331-0.34726q-0.24805-1.695-1.7446-1.7529-1.1162-0.041341-1.8603 0.79375t-0.97565 2.406l-0.25632 1.7529q-0.0744 0.52917-0.0496 1.1245 0.0413 0.99219 0.4961 1.5544 0.46302 0.56224 1.2898 0.59531 1.0997 0.041341 1.8273-0.77721 0.73587-0.81855 0.99219-2.406l0.25631-1.8025q0.0744-0.5457 0.0579-1.141z"/>
     <path id="attr1" d="m138.44 3.6552h-0.98392l1.4635-8.4005-3.0014 0.9095 0.17364-0.92604 3.8199-1.2402h0.17363z"/>
     <path id="attr2" d="m151.29 3.6552h-6.6476l0.14056-0.78548 4.779-4.1672q1.2981-1.1575 1.4304-2.1828 0.10749-0.79375-0.37206-1.2816-0.47129-0.49609-1.3477-0.51263-1.0749-0.016536-1.7942 0.55397-0.71933 0.56224-0.9095 1.571l-0.97565 0.00827q0.19017-1.356 1.2154-2.1745 1.0253-0.81855 2.5135-0.80202 1.3146 0.041341 2.0422 0.77721 0.73588 0.7276 0.62839 1.8438-0.11576 1.2898-1.7198 2.7533l-0.9095 0.80202-3.3156 2.7616h5.3909z"/>
     <path id="attr3" d="m157.88-1.6613 0.86816 0.016536q1.1079 0 1.8604-0.50436 0.76067-0.50436 0.85989-1.356 0.0909-0.78548-0.40514-1.265-0.48783-0.47956-1.4221-0.49609-0.98391-0.016536-1.6702 0.47129-0.68627 0.48782-0.86817 1.3312l-0.95911 0.00827q0.14883-1.2072 1.1328-1.943 0.99218-0.73587 2.3978-0.71933 1.3477 0.041341 2.1001 0.75241 0.76068 0.7028 0.66973 1.8769-0.14056 1.4883-2.0919 2.249 0.76894 0.25631 1.1658 0.82682 0.40514 0.56224 0.34726 1.3808-0.0909 1.3146-1.141 2.0836-1.0418 0.76894-2.5053 0.73587-1.3891-0.016536-2.249-0.77721-0.85163-0.76894-0.76068-1.9844l0.95911 0.00827q-0.0744 0.84336 0.51263 1.3725 0.59532 0.52917 1.5875 0.5457 1.0666 0.016536 1.7942-0.50436 0.72761-0.52917 0.81856-1.4635 0.0827-0.83509-0.47129-1.3064-0.5457-0.47129-1.6784-0.50436l-1.0004-0.008268z"/>
    </g>
   </g>
   <g fill="#4c72b0" aria-label="/&gt;">
    <path d="m165.77 5.3749h-1.3146l5.0271-13.072h1.3064z" style="font-variant-caps:all-small-caps"/>
    <path d="m177.85-1.0329-5.4653-2.1415v-1.571l7.061 3.1254v1.2072l-7.061 3.1337v-1.5875z" style="font-variant-caps:all-small-caps"/>
   </g>
  </g>
 </g>
</svg>
